DID YOU HEAR ABOUT THE MORGANS 2009 DVDRip H264 

Format                           : MPEG-4
Format profile                   : Base Media / Version 2
Codec ID                         : mp42
File size                        : 330 MiB
Duration                         : 1h 43mn
Overall bit rate                 : 446 Kbps
Encoded date                     : UTC 2010-03-02 14:46:15
Tagged date                      : UTC 2010-03-02 14:46:47
Writing application              : mp4creator 1.6.1d

Video
ID                               : 1
Format                           : AVC
Format/Info                      : Advanced Video Codec
Format profile                   : Baseline@L1.3
Format settings, CABAC           : No
Format settings, ReFrames        : 1 frame
Codec ID                         : avc1
Codec ID/Info                    : Advanced Video Coding
Duration                         : 1h 43mn
Bit rate mode                    : Variable
Bit rate                         : 378 Kbps
Width                            : 480 pixels
Height                           : 272 pixels
Display aspect ratio             : 16:9
Frame rate mode                  : Constant
Frame rate                       : 24.000 fps
Resolution                       : 24 bits
Colorimetry                      : 4:2:0
Scan type                        : Progressive
Bits/(Pixel*Frame)               : 0.121
Stream size                      : 280 MiB (85%)
Encoded date                     : UTC 2010-03-02 14:46:15
Tagged date                      : UTC 2010-03-02 14:46:42

Audio
ID                               : 2
Format                           : AAC
Format/Info                      : Advanced Audio Codec
Format version                   : Version 4
Format profile                   : LC
Format settings, SBR             : Yes
Format settings, PS              : No
Codec ID                         : 40
Duration                         : 1h 43mn
Bit rate mode                    : Variable
Bit rate                         : 66.15 Kbps
Maximum bit rate                 : 157 Kbps
Channel(s)                       : 2 channels
Channel positions                : L R
Sampling rate                    : 48.0 KHz
Resolution                       : 16 bits
Stream size                      : 49.5 MiB (15%)
Encoded date                     : UTC 2010-03-02 14:46:42
Tagged date                      : UTC 2010-03-02 14:46:47

A successful Manhattan couple, real estate agent Meryl Judith Morgan (née Becker) (Sarah Jessica Parker) and lawyer Paul Michael Morgan (Hugh Grant) are separated because of Paul's infidelity. But they are thrust together when they witness a murder and become targets of a contract killer.

Federal marshalls whisk away the Morgans from their beloved New York to tiny Ray, Wyoming, where they are temporarily put in the custody of the Wheelers (Sam Elliott and Mary Steenburgen), a married couple who are U.S. marshalls. They use the assumed names of Meryl and Paul Foster, who are visiting their cousins, the Wheelers. The killer, meanwhile, tries to track them down.
 
http://www.imdb.com/title/tt1314228/

PLEASE SEED AND ENJOY THANKS

scree shots 
 
http://img651.imageshack.us/img651/7480/dyhatmh264vicemp4thumbs.jpg

NOTE To burn MP4 files to disc i recomend convertx to dvd just click link below dl and install  
http://thepiratebay.org/torrent/5018839/VSO.Convert-X.to.DVD.3.5.3%28vice%29
